<?xml version="1.0" encoding="UTF-8" standalone="no"?>
<!DOCTYPE svg PUBLIC "-//W3C//DTD SVG 1.1//EN"
 "http://www.w3.org/Graphics/SVG/1.1/DTD/svg11.dtd">
<!-- Generated by graphviz version 2.38.0 (20140413.2041)
 -->
<!-- Title: G Pages: 1 -->
<svg width="484pt" height="204pt"
 viewBox="0.00 0.00 484.48 204.00" xmlns="http://www.w3.org/2000/svg" xmlns:xlink="http://www.w3.org/1999/xlink">
<g id="graph0" class="graph" transform="scale(1 1) rotate(0) translate(4 200)">
<title>G</title>
<polygon fill="white" stroke="none" points="-4,4 -4,-200 480.478,-200 480.478,4 -4,4"/>
<g id="clust1" class="cluster"><title>cluster_Global</title>
<path fill="none" stroke="gray" d="M305.478,-8C305.478,-8 456.478,-8 456.478,-8 462.478,-8 468.478,-14 468.478,-20 468.478,-20 468.478,-176 468.478,-176 468.478,-182 462.478,-188 456.478,-188 456.478,-188 305.478,-188 305.478,-188 299.478,-188 293.478,-182 293.478,-176 293.478,-176 293.478,-20 293.478,-20 293.478,-14 299.478,-8 305.478,-8"/>
<text text-anchor="middle" x="380.978" y="-175.2" font-family="Times,serif" font-size="11.00" fill="gray">Global</text>
</g>
<g id="clust2" class="cluster"><title>cluster_\App</title>
<path fill="none" stroke="gray" d="M313.478,-16C313.478,-16 448.478,-16 448.478,-16 454.478,-16 460.478,-22 460.478,-28 460.478,-28 460.478,-148 460.478,-148 460.478,-154 454.478,-160 448.478,-160 448.478,-160 313.478,-160 313.478,-160 307.478,-160 301.478,-154 301.478,-148 301.478,-148 301.478,-28 301.478,-28 301.478,-22 307.478,-16 313.478,-16"/>
<text text-anchor="middle" x="380.978" y="-147.2" font-family="Times,serif" font-size="11.00" fill="gray">App</text>
</g>
<g id="clust3" class="cluster"><title>cluster_\App\Http</title>
<path fill="none" stroke="gray" d="M321.478,-24C321.478,-24 440.478,-24 440.478,-24 446.478,-24 452.478,-30 452.478,-36 452.478,-36 452.478,-120 452.478,-120 452.478,-126 446.478,-132 440.478,-132 440.478,-132 321.478,-132 321.478,-132 315.478,-132 309.478,-126 309.478,-120 309.478,-120 309.478,-36 309.478,-36 309.478,-30 315.478,-24 321.478,-24"/>
<text text-anchor="middle" x="380.978" y="-119.2" font-family="Times,serif" font-size="11.00" fill="gray">Http</text>
</g>
<g id="clust4" class="cluster"><title>cluster_\App\Http\Controllers</title>
<path fill="none" stroke="gray" d="M329.478,-32C329.478,-32 432.478,-32 432.478,-32 438.478,-32 444.478,-38 444.478,-44 444.478,-44 444.478,-92 444.478,-92 444.478,-98 438.478,-104 432.478,-104 432.478,-104 329.478,-104 329.478,-104 323.478,-104 317.478,-98 317.478,-92 317.478,-92 317.478,-44 317.478,-44 317.478,-38 323.478,-32 329.478,-32"/>
<text text-anchor="middle" x="380.978" y="-91.2" font-family="Times,serif" font-size="11.00" fill="gray">Controllers</text>
</g>
<!-- \\App\\Http\\Controllers\\UserController -->
<g id="node1" class="node"><title>\\App\\Http\\Controllers\\UserController</title>
<polygon fill="none" stroke="black" points="436.478,-76 325.478,-76 325.478,-40 436.478,-40 436.478,-76"/>
<text text-anchor="middle" x="380.978" y="-55.2" font-family="Courier,monospace" font-size="11.00">UserController</text>
</g>
<!-- \\App\\Http\\Controllers\\Controller -->
<g id="node2" class="node"><title>\\App\\Http\\Controllers\\Controller</title>
<ellipse fill="none" stroke="black" cx="126.739" cy="-58" rx="126.978" ry="18"/>
<text text-anchor="middle" x="126.739" y="-54.3" font-family="Times,serif" font-size="14.00" fill="gray">\App\Http\Controllers\Controller</text>
</g>
<!-- \\App\\Http\\Controllers\\UserController&#45;&gt;\\App\\Http\\Controllers\\Controller -->
<g id="edge1" class="edge"><title>\\App\\Http\\Controllers\\UserController&#45;&gt;\\App\\Http\\Controllers\\Controller</title>
<path fill="none" stroke="black" d="M325.245,-58C306.838,-58 285.405,-58 263.581,-58"/>
<polygon fill="none" stroke="black" points="263.536,-54.5001 253.536,-58 263.536,-61.5001 263.536,-54.5001"/>
</g>
</g>
</svg>
